<svg width="128" height="128" viewBox="0 0 128 128" fill="none" xmlns="http://www.w3.org/2000/svg">
<rect width="128" height="128" fill="white"/>
<path d="M70.7748 43.7256L42.6498 27.3193C42.2913 27.1102 41.8837 27 41.4688 27C41.0538 27 40.6462 27.1102 40.2877 27.3193L12.1627 43.7256C11.8089 43.932 11.5154 44.2275 11.3113 44.5827C11.1073 44.938 11 45.3405 11 45.7501V78.5626C11 78.9722 11.1073 79.3747 11.3113 79.7299C11.5154 80.0852 11.8089 80.3807 12.1627 80.5871L40.2877 96.9934C40.6462 97.2025 41.0538 97.3127 41.4688 97.3127C41.8837 97.3127 42.2913 97.2025 42.6498 96.9934L70.7748 80.5871C71.1286 80.3807 71.4221 80.0852 71.6262 79.7299C71.8302 79.3747 71.9375 78.9722 71.9375 78.5626V45.7501C71.9375 45.3405 71.8302 44.938 71.6262 44.5827C71.4221 44.2275 71.1286 43.932 70.7748 43.7256ZM41.4688 32.0572L64.9428 45.7501L41.4688 59.443L17.9947 45.7501L41.4688 32.0572ZM15.6875 49.831L39.125 63.5021V90.8879L15.6875 77.2168V49.831ZM43.8125 90.8879V63.5021L67.25 49.831V77.2168L43.8125 90.8879Z" fill="black"/>
<path d="M83.3896 59.625V74H79.6396V59.625H74.6146V56.55H88.4146V59.625H83.3896ZM99.7799 66.225L99.9799 61.35H99.7549L96.5049 70.325L93.2549 61.35H93.0299L93.2299 66.225V74H89.9799V56.55H94.4049L96.5549 62.425H96.7549L98.9049 56.55H103.03V74H99.7799V66.225ZM106.345 74V70.975H111.045V59.275H110.82L107.27 63.925L104.87 62.05L109.045 56.55H114.795V70.975H118.495V74H106.345Z" fill="black"/>
</svg>
